<svg width="18" height="23" viewBox="0 0 18 23" fill="none" xmlns="http://www.w3.org/2000/svg">
<path d="M14.7973 11.885C14.819 10.204 15.7217 8.61345 17.1539 7.73299C16.2504 6.44267 14.7371 5.62457 13.1627 5.57531C11.4835 5.39905 9.85552 6.58014 8.99981 6.58014C8.12754 6.58014 6.81004 5.59281 5.39131 5.622C3.54206 5.68174 1.81809 6.73313 0.918393 8.34986C-1.01561 11.6983 0.426982 16.6193 2.27959 19.3259C3.20649 20.6513 4.28977 22.1317 5.70722 22.0792C7.09428 22.0217 7.61232 21.1948 9.28662 21.1948C10.9454 21.1948 11.4314 22.0792 12.8776 22.0459C14.366 22.0217 15.3038 20.7146 16.1981 19.3767C16.8641 18.4324 17.3766 17.3886 17.7166 16.2842C15.9674 15.5444 14.7994 13.7842 14.7973 11.885Z" fill="black"/>
<path d="M12.0656 3.79531C12.8772 2.8211 13.277 1.56892 13.1802 0.304688C11.9403 0.434908 10.7951 1.02747 9.97259 1.9643C9.1683 2.87963 8.74975 4.10978 8.82888 5.32569C10.0692 5.33846 11.2885 4.76196 12.0656 3.79531Z" fill="black"/>
</svg>
