<svg width="30" height="30" viewBox="0 0 30 30" fill="none" xmlns="http://www.w3.org/2000/svg">
<path d="M17.6373 22.0125C17.3998 22.0125 17.1623 21.925 16.9748 21.7375C16.6123 21.375 16.6123 20.775 16.9748 20.4125L20.7748 16.6125C21.1373 16.25 21.7373 16.25 22.0998 16.6125C22.4623 16.975 22.4623 17.575 22.0998 17.9375L18.2998 21.7375C18.1248 21.9125 17.8873 22.0125 17.6373 22.0125Z" fill="white"/>
<path d="M21.4373 18.2125H8.5498C8.0373 18.2125 7.6123 17.7875 7.6123 17.275C7.6123 16.7625 8.0373 16.3375 8.5498 16.3375H21.4373C21.9498 16.3375 22.3748 16.7625 22.3748 17.275C22.3748 17.7875 21.9623 18.2125 21.4373 18.2125Z" fill="white"/>
<path d="M8.56255 13.6625C8.32505 13.6625 8.08755 13.575 7.90005 13.3875C7.53755 13.025 7.53755 12.425 7.90005 12.0625L11.7 8.26245C12.0625 7.89995 12.6626 7.89995 13.0251 8.26245C13.3876 8.62495 13.3876 9.22498 13.0251 9.58748L9.22505 13.3875C9.03755 13.575 8.80005 13.6625 8.56255 13.6625Z" fill="white"/>
<path d="M21.4373 13.6624H8.5498C8.0373 13.6624 7.6123 13.2374 7.6123 12.7249C7.6123 12.2124 8.0373 11.7874 8.5498 11.7874H21.4373C21.9498 11.7874 22.3748 12.2124 22.3748 12.7249C22.3748 13.2374 21.9623 13.6624 21.4373 13.6624Z" fill="white"/>
<path d="M15 28.4375C7.5875 28.4375 1.5625 22.4125 1.5625 15C1.5625 7.5875 7.5875 1.5625 15 1.5625C22.4125 1.5625 28.4375 7.5875 28.4375 15C28.4375 22.4125 22.4125 28.4375 15 28.4375ZM15 3.4375C8.625 3.4375 3.4375 8.625 3.4375 15C3.4375 21.375 8.625 26.5625 15 26.5625C21.375 26.5625 26.5625 21.375 26.5625 15C26.5625 8.625 21.375 3.4375 15 3.4375Z" fill="white"/>
</svg>
