<svg width="21" height="22" viewBox="0 0 21 22" fill="none" xmlns="http://www.w3.org/2000/svg">
<path d="M12.5008 15.8258C12.34 15.8258 12.1792 15.7666 12.0523 15.6396C11.8068 15.3941 11.8068 14.9879 12.0523 14.7424L14.6252 12.1694C14.8707 11.924 15.277 11.924 15.5224 12.1694C15.7679 12.4149 15.7679 12.8211 15.5224 13.0666L12.9494 15.6396C12.8309 15.7581 12.6701 15.8258 12.5008 15.8258Z" fill="#752157"/>
<path d="M15.0738 13.2525H6.34767C6.00066 13.2525 5.71289 12.9647 5.71289 12.6177C5.71289 12.2707 6.00066 11.9829 6.34767 11.9829H15.0738C15.4209 11.9829 15.7086 12.2707 15.7086 12.6177C15.7086 12.9647 15.4293 13.2525 15.0738 13.2525Z" fill="#752157"/>
<path d="M6.3563 10.172C6.19549 10.172 6.03468 10.1127 5.90772 9.98579C5.66227 9.74034 5.66227 9.33408 5.90772 9.08863L8.48069 6.51563C8.72614 6.27018 9.13243 6.27018 9.37788 6.51563C9.62333 6.76108 9.62333 7.16737 9.37788 7.41282L6.80488 9.98579C6.67792 10.1127 6.51711 10.172 6.3563 10.172Z" fill="#752157"/>
<path d="M15.0738 10.1719H6.34767C6.00066 10.1719 5.71289 9.88414 5.71289 9.53713C5.71289 9.19011 6.00066 8.90234 6.34767 8.90234H15.0738C15.4209 8.90234 15.7086 9.19011 15.7086 9.53713C15.7086 9.88414 15.4293 10.1719 15.0738 10.1719Z" fill="#752157"/>
<path d="M10.715 20.1761C5.696 20.1761 1.61646 16.0966 1.61646 11.0776C1.61646 6.05855 5.696 1.979 10.715 1.979C15.734 1.979 19.8136 6.05855 19.8136 11.0776C19.8136 16.0966 15.734 20.1761 10.715 20.1761ZM10.715 3.24857C6.39849 3.24857 2.88602 6.76104 2.88602 11.0776C2.88602 15.3941 6.39849 18.9066 10.715 18.9066C15.0316 18.9066 18.544 15.3941 18.544 11.0776C18.544 6.76104 15.0316 3.24857 10.715 3.24857Z" fill="#752157"/>
</svg>
