<svg width="54" height="37" viewBox="0 0 54 37" fill="none" xmlns="http://www.w3.org/2000/svg">
<path d="M33.9524 5.87204C34.3799 5.87204 34.8074 5.97616 35.1449 6.19929C35.7974 6.63068 35.7974 7.34469 35.1449 7.77608L20.4749 17.4748C19.3949 18.1888 19.3949 19.3491 20.4749 20.0631L35.1449 29.7618C35.7974 30.1932 35.7974 30.9072 35.1449 31.3386C34.4924 31.77 33.4124 31.77 32.7599 31.3386L18.0899 21.6399C16.9424 20.8812 16.2899 19.8548 16.2899 18.7689C16.2899 17.683 16.9199 16.6566 18.0899 15.898L32.7599 6.19929C33.0974 5.99104 33.5249 5.87204 33.9524 5.87204Z" fill="#EAEAEA"/>
</svg>
