<svg width="20" height="27" viewBox="0 0 20 27" fill="none" xmlns="http://www.w3.org/2000/svg">
<path d="M2.04747 26.1282C1.61997 26.1282 1.19248 26.0241 0.854976 25.801C0.202476 25.3696 0.202476 24.6556 0.854976 24.2242L15.525 14.5255C16.605 13.8115 16.605 12.6512 15.525 11.9372L0.854976 2.23849C0.202476 1.8071 0.202476 1.09309 0.854976 0.661703C1.50748 0.230319 2.58747 0.230319 3.23997 0.661703L17.91 10.3604C19.0575 11.119 19.71 12.1454 19.71 13.2313C19.71 14.3172 19.08 15.3436 17.91 16.1023L3.23997 25.801C2.90247 26.0092 2.47497 26.1282 2.04747 26.1282Z" fill="#EAEAEA"/>
</svg>
