<svg width="30" height="30" viewBox="0 0 30 30" fill="none" xmlns="http://www.w3.org/2000/svg">
<path d="M6.48748 7.975C6.24998 7.975 5.99998 7.875 5.82498 7.7C5.46248 7.3375 5.46248 6.7375 5.82498 6.375L10.3625 1.8375C10.725 1.475 11.325 1.475 11.6875 1.8375C12.05 2.2 12.05 2.8 11.6875 3.1625L7.14998 7.7C6.96248 7.875 6.72498 7.975 6.48748 7.975Z" fill="white"/>
<path d="M23.5125 7.975C23.275 7.975 23.0375 7.8875 22.85 7.7L18.3125 3.1625C17.95 2.8 17.95 2.2 18.3125 1.8375C18.675 1.475 19.275 1.475 19.6375 1.8375L24.175 6.375C24.5375 6.7375 24.5375 7.3375 24.175 7.7C24 7.875 23.75 7.975 23.5125 7.975Z" fill="white"/>
<path d="M25.2625 13.25C25.175 13.25 25.0875 13.25 25 13.25H24.7125H5C4.125 13.2625 3.125 13.2625 2.4 12.5375C1.825 11.975 1.5625 11.1 1.5625 9.8125C1.5625 6.375 4.075 6.375 5.275 6.375H24.725C25.925 6.375 28.4375 6.375 28.4375 9.8125C28.4375 11.1125 28.175 11.975 27.6 12.5375C26.95 13.1875 26.075 13.25 25.2625 13.25ZM5.275 11.375H25.0125C25.575 11.3875 26.1 11.3875 26.275 11.2125C26.3625 11.125 26.55 10.825 26.55 9.8125C26.55 8.4 26.2 8.25 24.7125 8.25H5.275C3.7875 8.25 3.4375 8.4 3.4375 9.8125C3.4375 10.825 3.6375 11.125 3.7125 11.2125C3.8875 11.375 4.425 11.375 4.975 11.375H5.275Z" fill="white"/>
<path d="M12.2 22.875C11.6875 22.875 11.2625 22.45 11.2625 21.9375V17.5C11.2625 16.9875 11.6875 16.5625 12.2 16.5625C12.7125 16.5625 13.1375 16.9875 13.1375 17.5V21.9375C13.1375 22.4625 12.7125 22.875 12.2 22.875Z" fill="white"/>
<path d="M17.95 22.875C17.4375 22.875 17.0125 22.45 17.0125 21.9375V17.5C17.0125 16.9875 17.4375 16.5625 17.95 16.5625C18.4625 16.5625 18.8875 16.9875 18.8875 17.5V21.9375C18.8875 22.4625 18.4625 22.875 17.95 22.875Z" fill="white"/>
<path d="M18.6126 28.4375H11.0751C6.60006 28.4375 5.60006 25.775 5.21256 23.4625L3.45006 12.65C3.36256 12.1375 3.71256 11.6625 4.22506 11.575C4.73756 11.4875 5.21256 11.8375 5.30006 12.35L7.06256 23.15C7.42506 25.3625 8.17506 26.5625 11.0751 26.5625H18.6126C21.8251 26.5625 22.1876 25.4375 22.6001 23.2625L24.7001 12.325C24.8001 11.8125 25.2876 11.475 25.8001 11.5875C26.3126 11.6875 26.6376 12.175 26.5376 12.6875L24.4376 23.625C23.9501 26.1625 23.1376 28.4375 18.6126 28.4375Z" fill="white"/>
</svg>
