<svg width="21" height="22" viewBox="0 0 21 22" fill="none" xmlns="http://www.w3.org/2000/svg">
<path d="M4.67783 6.32076C4.51702 6.32076 4.34775 6.25305 4.22925 6.13456C3.9838 5.88911 3.9838 5.48285 4.22925 5.2374L7.30161 2.16504C7.54706 1.91959 7.95332 1.91959 8.19877 2.16504C8.44422 2.41049 8.44422 2.81676 8.19877 3.06221L5.12641 6.13456C4.99946 6.25305 4.83865 6.32076 4.67783 6.32076Z" fill="#752157"/>
<path d="M16.2055 6.32076C16.0447 6.32076 15.8839 6.26152 15.7569 6.13456L12.6846 3.06221C12.4391 2.81676 12.4391 2.41049 12.6846 2.16504C12.93 1.91959 13.3363 1.91959 13.5817 2.16504L16.6541 5.2374C16.8995 5.48285 16.8995 5.88911 16.6541 6.13456C16.5356 6.25305 16.3663 6.32076 16.2055 6.32076Z" fill="#752157"/>
<path d="M17.3904 9.89239C17.3311 9.89239 17.2719 9.89239 17.2126 9.89239H17.0179H3.67056C3.07809 9.90085 2.40099 9.90085 1.91009 9.40995C1.52076 9.02908 1.34302 8.43662 1.34302 7.56485C1.34302 5.2373 3.04424 5.2373 3.85676 5.2373H17.0264C17.8389 5.2373 19.5402 5.2373 19.5402 7.56485C19.5402 8.44508 19.3624 9.02908 18.9731 9.40995C18.533 9.85007 17.9405 9.89239 17.3904 9.89239ZM3.85676 8.62282H17.2211C17.6019 8.63128 17.9574 8.63128 18.0759 8.51279C18.1352 8.45354 18.2621 8.25041 18.2621 7.56485C18.2621 6.60844 18.0251 6.50687 17.0179 6.50687H3.85676C2.84957 6.50687 2.61259 6.60844 2.61259 7.56485C2.61259 8.25041 2.74801 8.45354 2.79879 8.51279C2.91728 8.62282 3.28122 8.62282 3.65363 8.62282H3.85676Z" fill="#752157"/>
<path d="M8.54592 16.4095C8.1989 16.4095 7.91113 16.1217 7.91113 15.7747V12.77C7.91113 12.423 8.1989 12.1353 8.54592 12.1353C8.89293 12.1353 9.1807 12.423 9.1807 12.77V15.7747C9.1807 16.1302 8.89293 16.4095 8.54592 16.4095Z" fill="#752157"/>
<path d="M12.4392 16.4095C12.0922 16.4095 11.8044 16.1217 11.8044 15.7747V12.77C11.8044 12.423 12.0922 12.1353 12.4392 12.1353C12.7862 12.1353 13.074 12.423 13.074 12.77V15.7747C13.074 16.1302 12.7862 16.4095 12.4392 16.4095Z" fill="#752157"/>
<path d="M12.8877 20.1762H7.78405C4.75402 20.1762 4.07691 18.3735 3.81454 16.8077L2.62114 9.48648C2.5619 9.13946 2.79888 8.81784 3.1459 8.75859C3.49291 8.69935 3.81454 8.93633 3.87378 9.28335L5.06718 16.5961C5.31263 18.0941 5.82045 18.9067 7.78405 18.9067H12.8877C15.0629 18.9067 15.3084 18.1449 15.5877 16.6722L17.0096 9.26642C17.0773 8.91941 17.4074 8.69088 17.7544 8.76706C18.1014 8.83477 18.3215 9.16486 18.2538 9.51187L16.8318 16.9177C16.5017 18.6358 15.9516 20.1762 12.8877 20.1762Z" fill="#752157"/>
</svg>
