<svg width="40" height="40" viewBox="0 0 40 40" fill="none" xmlns="http://www.w3.org/2000/svg">
<path d="M9.28334 37.8334C5.38334 37.8334 2.08334 34.5334 2.08334 30.6334V20.3667C2 15.5001 3.8 10.9167 7.16667 7.48341C10.5333 4.06675 15.05 2.16675 19.9167 2.16675C29.85 2.16675 37.9167 10.2501 37.9167 20.1667V30.4334C37.9167 34.4001 34.6833 37.6334 30.7167 37.6334C26.8167 37.6334 23.5167 34.3334 23.5167 30.4334V25.7501C23.5167 23.3334 25.4167 21.4334 27.8333 21.4334C30.25 21.4334 32.15 23.3334 32.15 25.7501V30.8001C32.15 31.4834 31.5833 32.0501 30.9 32.0501C30.2167 32.0501 29.65 31.4834 29.65 30.8001V25.7501C29.65 24.6167 28.7333 23.9334 27.8333 23.9334C26.7 23.9334 26.0167 24.8501 26.0167 25.7501V30.4334C26.0167 32.9834 28.1667 35.1334 30.7167 35.1334C33.2667 35.1334 35.4167 32.9834 35.4167 30.4334V20.1667C35.4167 11.6167 28.4667 4.66675 19.9167 4.66675C15.7333 4.66675 11.85 6.28341 8.95 9.23341C6.05 12.1834 4.5 16.1334 4.58334 20.3334V30.6334C4.58334 33.1834 6.73334 35.3334 9.28334 35.3334C11.8333 35.3334 13.9833 33.1834 13.9833 30.6334V25.9501C13.9833 24.8167 13.0667 24.1334 12.1667 24.1334C11.0333 24.1334 10.35 25.0501 10.35 25.9501V30.8167C10.35 31.5001 9.78334 32.0667 9.1 32.0667C8.41667 32.0667 7.85 31.5001 7.85 30.8167V25.9501C7.85 23.5334 9.75 21.6334 12.1667 21.6334C14.5833 21.6334 16.4833 23.5334 16.4833 25.9501V30.6334C16.4833 34.5334 13.1833 37.8334 9.28334 37.8334Z" fill="#752157"/>
</svg>
