<svg width="28" height="28" viewBox="0 0 28 28" fill="none" xmlns="http://www.w3.org/2000/svg">
<path d="M14.0911 24.974C13.7413 24.974 13.4028 24.9289 13.1206 24.8273C8.80974 23.3489 1.95972 18.1014 1.95972 10.3486C1.95972 6.3988 5.15338 3.19385 9.08058 3.19385C10.9878 3.19385 12.7708 3.93866 14.0911 5.2703C15.4115 3.93866 17.1945 3.19385 19.1017 3.19385C23.0289 3.19385 26.2226 6.41009 26.2226 10.3486C26.2226 18.1127 19.3725 23.3489 15.0617 24.8273C14.7795 24.9289 14.441 24.974 14.0911 24.974ZM9.08058 4.8866C6.09004 4.8866 3.65247 7.33546 3.65247 10.3486C3.65247 18.0563 11.0667 22.3446 13.6736 23.2361C13.8767 23.3038 14.3168 23.3038 14.52 23.2361C17.1155 22.3446 24.5411 18.0675 24.5411 10.3486C24.5411 7.33546 22.1035 4.8866 19.113 4.8866C17.3977 4.8866 15.8065 5.68784 14.7795 7.0759C14.4635 7.50474 13.7413 7.50474 13.4253 7.0759C12.3758 5.67656 10.7959 4.8866 9.08058 4.8866Z" fill="#C7C9D9"/>
</svg>
