<svg width="39" height="39" viewBox="0 0 39 39" fill="none" xmlns="http://www.w3.org/2000/svg">
<path d="M19.4512 36.9688C9.83123 36.9688 1.98248 29.1362 1.98248 19.5C1.98248 9.86375 9.83123 2.03125 19.4512 2.03125C29.0712 2.03125 36.92 9.86375 36.92 19.5C36.92 29.1362 29.0875 36.9688 19.4512 36.9688ZM19.4512 4.46875C11.1637 4.46875 4.41998 11.2125 4.41998 19.5C4.41998 27.7875 11.1637 34.5312 19.4512 34.5312C27.7387 34.5312 34.4825 27.7875 34.4825 19.5C34.4825 11.2125 27.7387 4.46875 19.4512 4.46875Z" fill="#752157"/>
<path d="M19.5 28.0312C14.7875 28.0312 10.9688 24.1962 10.9688 19.5C10.9688 14.8037 14.7875 10.9688 19.5 10.9688C24.2125 10.9688 28.0312 14.8037 28.0312 19.5C28.0312 24.1962 24.2125 28.0312 19.5 28.0312ZM19.5 13.4062C16.1363 13.4062 13.4062 16.1363 13.4062 19.5C13.4062 22.8637 16.1363 25.5938 19.5 25.5938C22.8637 25.5938 25.5938 22.8637 25.5938 19.5C25.5938 16.1363 22.8637 13.4062 19.5 13.4062Z" fill="#752157"/>
<path d="M13.715 14.9663C13.4062 14.9663 13.0812 14.8526 12.8537 14.6251L7.10124 8.87257C6.62999 8.40132 6.62999 7.62132 7.10124 7.15007C7.57249 6.67882 8.35249 6.67882 8.82374 7.15007L14.5762 12.9026C15.0475 13.3738 15.0475 14.1376 14.5762 14.6251C14.3325 14.8526 14.0237 14.9663 13.715 14.9663Z" fill="#752157"/>
<path d="M7.96249 32.2074C7.65374 32.2074 7.34499 32.0937 7.10124 31.8499C6.62999 31.3787 6.62999 30.5987 7.10124 30.1274L12.8537 24.3749C13.325 23.9037 14.105 23.9037 14.5762 24.3749C15.0475 24.8462 15.0475 25.6262 14.5762 26.0974L8.82374 31.8499C8.59624 32.0937 8.27124 32.2074 7.96249 32.2074Z" fill="#752157"/>
<path d="M30.94 32.2074C30.6313 32.2074 30.3225 32.0937 30.0788 31.8499L24.3263 26.0974C23.855 25.6262 23.855 24.8462 24.3263 24.3749C24.7975 23.9037 25.5775 23.9037 26.0488 24.3749L31.8013 30.1274C32.2725 30.5987 32.2725 31.3787 31.8013 31.8499C31.5738 32.0937 31.265 32.2074 30.94 32.2074Z" fill="#752157"/>
<path d="M25.2038 14.9662C24.895 14.9662 24.5863 14.8525 24.3425 14.6087C23.8713 14.1375 23.8713 13.3575 24.3425 12.8862L30.095 7.13371C30.5663 6.66246 31.3463 6.66246 31.8175 7.13371C32.2888 7.60496 32.2888 8.38496 31.8175 8.85621L26.065 14.625C25.8213 14.8525 25.5125 14.9662 25.2038 14.9662Z" fill="#752157"/>
</svg>
