<svg width="20" height="27" viewBox="0 0 20 27" fill="none" xmlns="http://www.w3.org/2000/svg">
<path d="M18.3181 0.872038C18.7456 0.872038 19.1731 0.976164 19.5106 1.19929C20.1631 1.63068 20.1631 2.34469 19.5106 2.77608L4.84063 12.4748C3.76063 13.1888 3.76063 14.3491 4.84063 15.0631L19.5106 24.7618C20.1631 25.1932 20.1631 25.9072 19.5106 26.3386C18.8581 26.77 17.7781 26.77 17.1256 26.3386L2.45562 16.6399C1.30812 15.8812 0.655625 14.8548 0.655625 13.7689C0.655625 12.683 1.28562 11.6566 2.45562 10.898L17.1256 1.19929C17.4631 0.991039 17.8906 0.872038 18.3181 0.872038Z" fill="#EAEAEA"/>
</svg>
