<svg xmlns="http://www.w3.org/2000/svg" xmlns:xlink="http://www.w3.org/1999/xlink" version="1.1" width="256" height="256" viewBox="0 0 256 256" xml:space="preserve">

<defs>
</defs>
<g style="stroke: none; stroke-width: 0; stroke-dasharray: none; stroke-linecap: butt; stroke-linejoin: miter; stroke-miterlimit: 10; fill: none; fill-rule: nonzero; opacity: 1;" transform="translate(1.4065934065934016 1.4065934065934016) scale(2.81 2.81)" >
	<path d="M 70.54 90 H 19.46 C 8.713 90 0 81.287 0 70.54 l 0 -51.08 C 0 8.713 8.713 0 19.46 0 l 51.08 0 C 81.287 0 90 8.713 90 19.46 v 51.08 C 90 81.287 81.287 90 70.54 90 z" style="stroke: none; stroke-width: 1; stroke-dasharray: none; stroke-linecap: butt; stroke-linejoin: miter; stroke-miterlimit: 10; fill: rgb(91,91,91); fill-rule: nonzero; opacity: 1;" transform=" matrix(1 0 0 1 0 0) " stroke-linecap="round" />
	<path d="M 66.187 31.265 H 23.813 c -1.933 0 -3.5 -1.567 -3.5 -3.5 s 1.567 -3.5 3.5 -3.5 h 42.374 c 1.933 0 3.5 1.567 3.5 3.5 S 68.119 31.265 66.187 31.265 z" style="stroke: none; stroke-width: 1; stroke-dasharray: none; stroke-linecap: butt; stroke-linejoin: miter; stroke-miterlimit: 10; fill: rgb(255,255,255); fill-rule: nonzero; opacity: 1;" transform=" matrix(1 0 0 1 0 0) " stroke-linecap="round" />
	<path d="M 66.187 48.5 H 23.813 c -1.933 0 -3.5 -1.567 -3.5 -3.5 c 0 -1.933 1.567 -3.5 3.5 -3.5 h 42.374 c 1.933 0 3.5 1.567 3.5 3.5 C 69.687 46.933 68.119 48.5 66.187 48.5 z" style="stroke: none; stroke-width: 1; stroke-dasharray: none; stroke-linecap: butt; stroke-linejoin: miter; stroke-miterlimit: 10; fill: rgb(255,255,255); fill-rule: nonzero; opacity: 1;" transform=" matrix(1 0 0 1 0 0) " stroke-linecap="round" />
	<path d="M 66.187 65.735 H 23.813 c -1.933 0 -3.5 -1.567 -3.5 -3.5 s 1.567 -3.5 3.5 -3.5 h 42.374 c 1.933 0 3.5 1.567 3.5 3.5 S 68.119 65.735 66.187 65.735 z" style="stroke: none; stroke-width: 1; stroke-dasharray: none; stroke-linecap: butt; stroke-linejoin: miter; stroke-miterlimit: 10; fill: rgb(255,255,255); fill-rule: nonzero; opacity: 1;" transform=" matrix(1 0 0 1 0 0) " stroke-linecap="round" />
</g>
</svg>