<svg width="30" height="30" viewBox="0 0 30 30" fill="none" xmlns="http://www.w3.org/2000/svg">
<path d="M18.8625 4.16211C19.1 4.16211 19.3375 4.24961 19.525 4.43711C19.8875 4.79961 19.8875 5.39961 19.525 5.76211L11.375 13.9121C10.775 14.5121 10.775 15.4871 11.375 16.0871L19.525 24.2371C19.8875 24.5996 19.8875 25.1996 19.525 25.5621C19.1625 25.9246 18.5625 25.9246 18.2 25.5621L10.05 17.4121C9.4125 16.7746 9.05 15.9121 9.05 14.9996C9.05 14.0871 9.4 13.2246 10.05 12.5871L18.2 4.43711C18.3875 4.26211 18.625 4.16211 18.8625 4.16211Z" fill="#292D32"/>
</svg>
