<svg width="20" height="27" viewBox="0 0 20 27" fill="none" xmlns="http://www.w3.org/2000/svg">
<path d="M1.68187 26.128C1.25437 26.128 0.826875 26.0238 0.489375 25.8007C-0.163125 25.3693 -0.163125 24.6553 0.489375 24.2239L15.1594 14.5252C16.2394 13.8112 16.2394 12.6509 15.1594 11.9369L0.489375 2.23821C-0.163125 1.80683 -0.163125 1.09281 0.489375 0.661429C1.14187 0.230045 2.22187 0.230045 2.87437 0.661429L17.5444 10.3601C18.6919 11.1188 19.3444 12.1452 19.3444 13.2311C19.3444 14.317 18.7144 15.3434 17.5444 16.102L2.87437 25.8007C2.53687 26.009 2.10937 26.128 1.68187 26.128Z" fill="#EAEAEA"/>
</svg>
