<svg width="16" height="15" viewBox="0 0 16 15" fill="none" xmlns="http://www.w3.org/2000/svg">
<path d="M9.08119 2.19414L10.1812 4.39414C10.3312 4.70039 10.7312 4.99414 11.0687 5.05039L13.0624 5.38164C14.3374 5.59414 14.6374 6.51914 13.7187 7.43164L12.1687 8.98164C11.9062 9.24414 11.7624 9.75039 11.8437 10.1129L12.2874 12.0316C12.6374 13.5504 11.8312 14.1379 10.4874 13.3441L8.61869 12.2379C8.28119 12.0379 7.72494 12.0379 7.38119 12.2379L5.51244 13.3441C4.17494 14.1379 3.36244 13.5441 3.71244 12.0316L4.15619 10.1129C4.23744 9.75039 4.09369 9.24414 3.83119 8.98164L2.28119 7.43164C1.36869 6.51914 1.66244 5.59414 2.93744 5.38164L4.93119 5.05039C5.26244 4.99414 5.66244 4.70039 5.81244 4.39414L6.91244 2.19414C7.51244 1.00039 8.48744 1.00039 9.08119 2.19414Z" fill="#752157"/>
</svg>
