<svg width="41" height="41" viewBox="0 0 41 41" fill="none" xmlns="http://www.w3.org/2000/svg">
<path d="M29.0417 36.3022H11.9584C5.72294 36.3022 2.13544 32.7147 2.13544 26.4792V14.5209C2.13544 8.2855 5.72294 4.698 11.9584 4.698H29.0417C35.2771 4.698 38.8646 8.2855 38.8646 14.5209V26.4792C38.8646 32.7147 35.2771 36.3022 29.0417 36.3022ZM11.9584 7.2605C7.07252 7.2605 4.69794 9.63508 4.69794 14.5209V26.4792C4.69794 31.3651 7.07252 33.7397 11.9584 33.7397H29.0417C33.9275 33.7397 36.3021 31.3651 36.3021 26.4792V14.5209C36.3021 9.63508 33.9275 7.2605 29.0417 7.2605H11.9584Z" fill="#752157"/>
<path d="M20.4996 21.9862C19.0646 21.9862 17.6125 21.542 16.5021 20.6366L11.155 16.3658C10.6083 15.9216 10.5059 15.1187 10.95 14.572C11.3942 14.0254 12.1971 13.9229 12.7438 14.367L18.0908 18.6379C19.3892 19.68 21.5929 19.68 22.8913 18.6379L28.2383 14.367C28.785 13.9229 29.605 14.0083 30.0321 14.572C30.4763 15.1187 30.3909 15.9387 29.8271 16.3658L24.48 20.6366C23.3867 21.542 21.9346 21.9862 20.4996 21.9862Z" fill="#752157"/>
</svg>
