<svg width="15" height="15" viewBox="0 0 15 15" fill="none" xmlns="http://www.w3.org/2000/svg">
<path d="M8.58125 2.19377L9.68125 4.39377C9.83125 4.70002 10.2313 4.99377 10.5688 5.05002L12.5625 5.38127C13.8375 5.59377 14.1375 6.51877 13.2188 7.43127L11.6688 8.98127C11.4063 9.24377 11.2625 9.75002 11.3438 10.1125L11.7875 12.0313C12.1375 13.55 11.3313 14.1375 9.9875 13.3438L8.11875 12.2375C7.78125 12.0375 7.225 12.0375 6.88125 12.2375L5.0125 13.3438C3.675 14.1375 2.8625 13.5438 3.2125 12.0313L3.65625 10.1125C3.7375 9.75002 3.59375 9.24377 3.33125 8.98127L1.78125 7.43127C0.868754 6.51877 1.1625 5.59377 2.4375 5.38127L4.43125 5.05002C4.7625 4.99377 5.1625 4.70002 5.3125 4.39377L6.4125 2.19377C7.0125 1.00002 7.9875 1.00002 8.58125 2.19377Z" fill="#E4E4E4"/>
</svg>
