<svg width="15" height="15" viewBox="0 0 15 15" fill="none" xmlns="http://www.w3.org/2000/svg">
<path d="M8.58125 2.19365L9.68125 4.39365C9.83125 4.6999 10.2313 4.99365 10.5688 5.0499L12.5625 5.38115C13.8375 5.59365 14.1375 6.51865 13.2188 7.43115L11.6688 8.98115C11.4063 9.24365 11.2625 9.7499 11.3438 10.1124L11.7875 12.0312C12.1375 13.5499 11.3313 14.1374 9.9875 13.3437L8.11875 12.2374C7.78125 12.0374 7.225 12.0374 6.88125 12.2374L5.0125 13.3437C3.675 14.1374 2.8625 13.5437 3.2125 12.0312L3.65625 10.1124C3.7375 9.7499 3.59375 9.24365 3.33125 8.98115L1.78125 7.43115C0.868754 6.51865 1.1625 5.59365 2.4375 5.38115L4.43125 5.0499C4.7625 4.99365 5.1625 4.6999 5.3125 4.39365L6.4125 2.19365C7.0125 0.999902 7.9875 0.999902 8.58125 2.19365Z" fill="#FFA700"/>
</svg>
