<svg width="14" height="14" viewBox="0 0 14 14" fill="none" xmlns="http://www.w3.org/2000/svg">
<path d="M8.13981 2.28681L9.13289 4.27298C9.26831 4.54946 9.62943 4.81466 9.93413 4.86544L11.7341 5.16449C12.8852 5.35634 13.156 6.19143 12.3266 7.01524L10.9272 8.41459C10.6902 8.65157 10.5604 9.10862 10.6338 9.43588L11.0344 11.1681C11.3504 12.5393 10.6225 13.0697 9.40937 12.3531L7.72226 11.3543C7.41756 11.1738 6.91538 11.1738 6.60504 11.3543L4.91793 12.3531C3.71043 13.0697 2.9769 12.5336 3.29288 11.1681L3.6935 9.43588C3.76685 9.10862 3.63707 8.65157 3.40009 8.41459L2.00074 7.01524C1.17693 6.19143 1.44213 5.35634 2.59321 5.16449L4.39317 4.86544C4.69222 4.81466 5.05335 4.54946 5.18877 4.27298L6.18185 2.28681C6.72353 1.20909 7.60377 1.20909 8.13981 2.28681Z" fill="#FFA700"/>
</svg>
